HIERARCHY
ROOT __0
{
	OFFSET 0.0 0.0 0.0
	CHANNELS 0
	JOINT Bone.001
	{
		OFFSET 0.000001 -0.172647 1.109107
		CHANNELS 6 Xposition Yposition Zposition Xrotation Yrotation Zrotation
		JOINT Bone.002
		{
			OFFSET 0.000000 -0.358385 0.148939
			CHANNELS 3 Xrotation Yrotation Zrotation
			JOINT Bone.003
			{
				OFFSET 0.000000 -0.181520 0.260644
				CHANNELS 3 Xrotation Yrotation Zrotation
				JOINT Bone.004
				{
					OFFSET 0.000000 -0.190829 0.162902
					CHANNELS 3 Xrotation Yrotation Zrotation
					End Site
					{
						OFFSET 0.000000 -0.274607 -0.111705
					}
				}
			}
		}
		JOINT Bone.017
		{
			OFFSET 0.000000 -0.358385 0.148939
			CHANNELS 3 Xrotation Yrotation Zrotation
			JOINT Bone.018
			{
				OFFSET -0.148939 0.000000 -0.060506
				CHANNELS 3 Xrotation Yrotation Zrotation
				JOINT Bone.019
				{
					OFFSET -0.051288 -0.003470 -0.251301
					CHANNELS 3 Xrotation Yrotation Zrotation
					End Site
					{
						OFFSET 0.000000 -0.162902 -0.237371
					}
				}
			}
		}
		JOINT Bone.020
		{
			OFFSET 0.000000 -0.358385 0.148939
			CHANNELS 3 Xrotation Yrotation Zrotation
			JOINT Bone.021
			{
				OFFSET 0.218754 0.000000 -0.111704
				CHANNELS 3 Xrotation Yrotation Zrotation
				JOINT Bone.022
				{
					OFFSET -0.018617 0.000000 -0.214099
					CHANNELS 3 Xrotation Yrotation Zrotation
					End Site
					{
						OFFSET -0.013963 -0.204790 -0.242026
					}
				}
			}
		}
	}
	JOINT Bone.005
	{
		OFFSET -0.000000 0.493798 1.031210
		CHANNELS 6 Xposition Yposition Zposition Xrotation Yrotation Zrotation
		JOINT Bone.006
		{
			OFFSET -0.000000 0.381657 -0.065161
			CHANNELS 3 Xrotation Yrotation Zrotation
			JOINT Bone.007
			{
				OFFSET -0.000000 0.321151 -0.023272
				CHANNELS 3 Xrotation Yrotation Zrotation
				JOINT Bone.008
				{
					OFFSET -0.000000 0.273676 -0.016756
					CHANNELS 3 Xrotation Yrotation Zrotation
					JOINT Bone.009
					{
						OFFSET -0.000000 0.307187 -0.005585
						CHANNELS 3 Xrotation Yrotation Zrotation
						JOINT Bone.010
						{
							OFFSET -0.000000 0.273676 -0.005585
							CHANNELS 3 Xrotation Yrotation Zrotation
							End Site
							{
								OFFSET -0.000000 0.217824 -0.039096
							}
						}
					}
				}
			}
		}
	}
	JOINT upperLeg.L
	{
		OFFSET 0.181519 0.117290 0.985792
		CHANNELS 6 Xposition Yposition Zposition Xrotation Yrotation Zrotation
		JOINT lowerLeg.L
		{
			OFFSET 0.051197 -0.094949 -0.360003
			CHANNELS 3 Xrotation Yrotation Zrotation
			JOINT foot.L
			{
				OFFSET 0.041889 0.173142 -0.379795
				CHANNELS 3 Xrotation Yrotation Zrotation
				End Site
				{
					OFFSET -0.018617 -0.156386 -0.182451
				}
			}
		}
	}
	JOINT upperLeg.R
	{
		OFFSET -0.200136 0.117290 0.985792
		CHANNELS 6 Xposition Yposition Zposition Xrotation Yrotation Zrotation
		JOINT lowerLeg.R
		{
			OFFSET -0.051197 -0.094949 -0.360003
			CHANNELS 3 Xrotation Yrotation Zrotation
			JOINT foot.R
			{
				OFFSET -0.041889 0.173142 -0.379795
				CHANNELS 3 Xrotation Yrotation Zrotation
				End Site
				{
					OFFSET 0.018617 -0.156386 -0.182451
				}
			}
		}
	}
}
MOTION
Frames: 11
Frame Time: 0.041667
0.000001 -0.172647 1.109107 3.400818 -0.000000 0.000000 0.000002 0.000000 0.000000 0.000000 0.000000 0.000000 -0.000002 -0.000000 -0.000000 -0.000001 -0.000001 -0.000000 -34.839364 -11.773651 15.751142 0.000002 -0.000002 0.000000 -0.000002 0.000001 -0.000001 0.000000 0.000000 0.000000 20.268492 -0.000002 -0.000000 -0.000000 0.493798 1.031209 -11.841086 1.112319 10.179092 4.010465 -1.164911 -4.095434 5.181715 -2.046351 -12.323323 3.736730 -2.102849 -14.712014 -2.091808 -1.282417 -12.109497 -6.217485 -0.867232 -6.185011 0.181519 0.117290 0.985792 24.737050 -0.405054 -0.051768 -11.943812 0.254084 0.165458 -3.065031 0.642284 -0.268110 -0.200136 0.117290 0.985792 -46.387855 -10.433285 0.293855 20.729643 15.737079 -2.348824 25.693549 7.557273 -9.727899 
0.000001 -0.172647 1.109107 3.400818 -0.000000 0.000000 0.000002 0.000000 0.000000 0.000000 0.000000 0.000000 -0.000002 -0.000000 -0.000000 -0.000001 -0.000001 -0.000000 -34.839364 -11.773651 15.751142 0.000002 -0.000002 0.000000 -0.000002 0.000001 -0.000001 0.000000 0.000000 0.000000 20.268492 -0.000002 -0.000000 -0.000000 0.493798 1.031209 -11.841086 1.112319 10.179092 4.010465 -1.164911 -4.095434 5.181715 -2.046351 -12.323323 3.736730 -2.102849 -14.712014 -2.091808 -1.282417 -12.109497 -6.217485 -0.867232 -6.185011 0.181519 0.117290 0.985792 22.525626 -0.809058 -0.119312 -5.935643 0.530087 0.306887 -2.277072 1.281254 -0.545227 -0.200136 0.117290 0.985792 -42.884907 -9.190925 0.557269 19.846380 13.930023 -2.006563 24.001829 6.688958 -8.444272 
0.000001 -0.172647 1.109107 3.400818 -0.000000 0.000000 0.000002 0.000000 0.000000 0.000000 0.000000 0.000000 -0.000002 -0.000000 -0.000000 -0.000001 -0.000001 -0.000000 -34.839364 -11.773651 15.751142 0.000002 -0.000002 0.000000 -0.000002 0.000001 -0.000001 0.000000 0.000000 0.000000 20.268492 -0.000002 -0.000000 -0.000000 0.493798 1.031209 -11.841086 1.112319 10.179092 4.010465 -1.164911 -4.095434 5.181715 -2.046351 -12.323323 3.736730 -2.102849 -14.712014 -2.091808 -1.282417 -12.109497 -6.217485 -0.867232 -6.185011 0.181519 0.117290 0.985792 20.308311 -1.211083 -0.202619 0.176888 0.824518 0.420331 -1.485388 1.916665 -0.831342 -0.200136 0.117290 0.985792 -39.377256 -7.927084 0.743618 18.979021 12.114788 -1.694774 22.329323 5.781657 -7.186434 
0.000001 -0.172647 1.109107 3.400818 -0.000000 0.000000 0.000002 0.000000 0.000000 0.000000 0.000000 0.000000 -0.000002 -0.000000 -0.000000 -0.000001 -0.000001 -0.000000 -34.839364 -11.773651 15.751142 0.000002 -0.000002 0.000000 -0.000002 0.000001 -0.000001 0.000000 0.000000 0.000000 20.268492 -0.000002 -0.000000 -0.000000 0.493798 1.031209 -11.841086 1.112319 10.179092 4.010465 -1.164911 -4.095434 5.181715 -2.046351 -12.323323 3.736730 -2.102849 -14.712014 -2.091808 -1.282417 -12.109497 -6.217485 -0.867232 -6.185011 0.181519 0.117290 0.985792 18.086585 -1.610200 -0.301604 6.361234 1.132986 0.502547 -0.689933 2.548265 -1.126441 -0.200136 0.117290 0.985792 -35.868940 -6.648955 0.851539 18.126103 10.292964 -1.412568 20.677342 4.837100 -5.955827 
0.000001 -0.172647 1.109107 3.400818 -0.000000 0.000000 0.000002 0.000000 0.000000 0.000000 0.000000 0.000000 -0.000002 -0.000000 -0.000000 -0.000001 -0.000001 -0.000000 -34.839364 -11.773651 15.751142 0.000002 -0.000002 0.000000 -0.000002 0.000001 -0.000001 0.000000 0.000000 0.000000 20.268492 -0.000002 -0.000000 -0.000000 0.493798 1.031209 -11.841086 1.112319 10.179092 4.010465 -1.164911 -4.095434 5.181715 -2.046351 -12.323323 3.736730 -2.102849 -14.712014 -2.091808 -1.282417 -12.109497 -6.217485 -0.867232 -6.185011 0.181519 0.117290 0.985792 15.861960 -2.005485 -0.416112 12.582458 1.450393 0.551238 0.109340 3.175807 -1.430506 -0.200136 0.117290 0.985792 -32.363875 -5.363955 0.880433 17.286232 8.466128 -1.159140 19.046997 3.857129 -4.753729 
0.000001 -0.172647 1.109107 3.400818 -0.000000 0.000000 0.000002 0.000000 0.000000 0.000000 0.000000 0.000000 -0.000002 -0.000000 -0.000000 -0.000001 -0.000001 -0.000000 -34.839364 -11.773651 15.751142 0.000002 -0.000002 0.000000 -0.000002 0.000001 -0.000001 0.000000 0.000000 0.000000 20.268492 -0.000002 -0.000000 -0.000000 0.493798 1.031209 -11.841086 1.112319 10.179092 4.010465 -1.164911 -4.095434 5.181715 -2.046351 -12.323323 3.736730 -2.102849 -14.712014 -2.091808 -1.282417 -12.109497 -6.217485 -0.867232 -6.185011 0.181519 0.117290 0.985792 13.635960 -2.396028 -0.545922 18.804385 1.771206 0.565237 0.912474 3.799038 -1.743517 -0.200136 0.117290 0.985792 -28.865944 -4.079597 0.830464 16.458048 6.635846 -0.933762 17.439251 2.843680 -3.581248 
0.000001 -0.172647 1.109107 3.400818 -0.000000 0.000000 0.000002 0.000000 0.000000 0.000000 0.000000 0.000000 -0.000002 -0.000000 -0.000000 -0.000001 -0.000001 -0.000000 -34.839364 -11.773651 15.751142 0.000002 -0.000002 0.000000 -0.000002 0.000001 -0.000001 0.000000 0.000000 0.000000 20.268492 -0.000002 -0.000000 -0.000000 0.493798 1.031209 -11.841086 1.112319 10.179092 4.010465 -1.164911 -4.095434 5.181715 -2.046351 -12.323323 3.736730 -2.102849 -14.712014 -2.091808 -1.282417 -12.109497 -6.217485 -0.867232 -6.185011 0.181519 0.117290 0.985792 11.410130 -2.780938 -0.690741 24.990836 2.089772 0.544588 1.719501 4.417716 -2.065449 -0.200136 0.117290 0.985792 -25.378983 -2.803363 0.702561 15.640238 4.803669 -0.735785 15.854891 1.798784 -2.439347 
0.000001 -0.172647 1.109107 3.400818 -0.000000 0.000000 0.000002 0.000000 0.000000 0.000000 0.000000 0.000000 -0.000002 -0.000000 -0.000000 -0.000001 -0.000001 -0.000000 -34.839364 -11.773651 15.751142 0.000002 -0.000002 0.000000 -0.000002 0.000001 -0.000001 0.000000 0.000000 0.000000 20.268492 -0.000002 -0.000000 -0.000000 0.493798 1.031209 -11.841086 1.112319 10.179092 4.010465 -1.164911 -4.095434 5.181715 -2.046351 -12.323323 3.736730 -2.102849 -14.712014 -2.091808 -1.282417 -12.109497 -6.217485 -0.867232 -6.185011 0.181519 0.117290 0.985792 9.186020 -3.159356 -0.850214 31.106823 2.400640 0.490528 2.530448 5.031593 -2.396269 -0.200136 0.117290 0.985792 -21.906817 -1.542563 0.498383 14.831537 2.971135 -0.564633 14.294561 0.724533 -1.328822 
0.000001 -0.172647 1.109107 3.400818 -0.000000 0.000000 0.000002 0.000000 0.000000 0.000000 0.000000 0.000000 -0.000002 -0.000000 -0.000000 -0.000001 -0.000001 -0.000000 -34.839364 -11.773651 15.751142 0.000002 -0.000002 0.000000 -0.000002 0.000001 -0.000001 0.000000 0.000000 0.000000 20.268492 -0.000002 -0.000000 -0.000000 0.493798 1.031209 -11.841086 1.112319 10.179092 4.010465 -1.164911 -4.095434 5.181715 -2.046351 -12.323323 3.736730 -2.102849 -14.712014 -2.091808 -1.282417 -12.109497 -6.217485 -0.867232 -6.185011 0.181519 0.117290 0.985792 6.965177 -3.530447 -1.023921 37.119739 2.698869 0.405365 3.345342 5.640425 -2.735945 -0.200136 0.117290 0.985792 -18.453242 -0.304208 0.220292 14.030715 1.139756 -0.419804 12.758746 -0.376927 -0.250332 
0.000001 -0.172647 1.109107 3.400818 -0.000000 0.000000 0.000002 0.000000 0.000000 0.000000 0.000000 0.000000 -0.000002 -0.000000 -0.000000 -0.000001 -0.000001 -0.000000 -34.839364 -11.773651 15.751142 0.000002 -0.000002 0.000000 -0.000002 0.000001 -0.000001 0.000000 0.000000 0.000000 20.268492 -0.000002 -0.000000 -0.000000 0.493798 1.031209 -11.841086 1.112319 10.179092 4.010465 -1.164911 -4.095434 5.181715 -2.046351 -12.323323 3.736730 -2.102849 -14.712014 -2.091808 -1.282417 -12.109497 -6.217485 -0.867232 -6.185011 0.181519 0.117290 0.985792 4.749154 -3.893427 -1.211381 43.000282 2.980256 0.292287 4.164200 6.243966 -3.084434 -0.200136 0.117290 0.985792 -15.022064 0.905096 -0.128701 13.236564 -0.688978 -0.300861 11.247784 -1.503412 0.795608 
0.000001 -0.172647 1.109107 3.400818 -0.000000 0.000000 0.000002 0.000000 0.000000 0.000000 0.000000 0.000000 -0.000002 -0.000000 -0.000000 -0.000001 -0.000001 -0.000000 -34.839364 -11.773651 15.751142 0.000002 -0.000002 0.000000 -0.000002 0.000001 -0.000001 0.000000 0.000000 0.000000 20.268492 -0.000002 -0.000000 -0.000000 0.493798 1.031209 -11.841086 1.112319 10.179092 4.010465 -1.164911 -4.095434 5.181715 -2.046351 -12.323323 3.736730 -2.102849 -14.712014 -2.091808 -1.282417 -12.109497 -6.217485 -0.867232 -6.185011 0.181519 0.117290 0.985792 -0.537321 -2.398842 -1.754840 40.899637 1.071679 0.882101 6.272930 4.511938 -1.906831 -0.200136 0.117290 0.985792 -10.893112 0.804465 -0.144280 10.159118 -0.667688 -0.307092 9.739985 -1.356543 0.691726 
